<mxfile host="drawio-plugin" modified="2023-06-17T21:49:44.035Z" agent="5.0 (Windows NT 6.2; Win64; x64) AppleWebKit/537.36 (KHTML, like Gecko) Chrome/104.0.5112.102 Safari/537.36" etag="SnfVEPLndZkONxClLYk9" version="20.5.3" type="embed"><diagram id="23iRSUPoRavnBvh4doch" name="Page-1"><mxGraphModel dx="1097" dy="460" grid="1" gridSize="10" guides="1" tooltips="1" connect="1" arrows="1" fold="1" page="1" pageScale="1" pageWidth="827" pageHeight="1169" math="0" shadow="0"><root><mxCell id="0"/><mxCell id="1" parent="0"/><mxCell id="3" value="users" style="shape=table;startSize=30;container=1;collapsible=0;childLayout=tableLayout;fixedRows=1;rowLines=0;fontStyle=1;" vertex="1" parent="1"><mxGeometry x="330" y="170" width="180" height="150" as="geometry"/></mxCell><mxCell id="13" value="" style="shape=tableRow;horizontal=0;startSize=0;swimlaneHead=0;swimlaneBody=0;top=0;left=0;bottom=0;right=0;collapsible=0;dropTarget=0;fillColor=none;points=[[0,0.5],[1,0.5]];portConstraint=eastwest;" vertex="1" parent="3"><mxGeometry y="30" width="180" height="30" as="geometry"/></mxCell><mxCell id="14" value="PK" style="shape=partialRectangle;html=1;whiteSpace=wrap;connectable=0;fillColor=none;top=0;left=0;bottom=0;right=0;overflow=hidden;pointerEvents=1;" vertex="1" parent="13"><mxGeometry width="40" height="30" as="geometry"><mxRectangle width="40" height="30" as="alternateBounds"/></mxGeometry></mxCell><mxCell id="15" value="id" style="shape=partialRectangle;html=1;whiteSpace=wrap;connectable=0;fillColor=none;top=0;left=0;bottom=0;right=0;align=left;spacingLeft=6;overflow=hidden;" vertex="1" parent="13"><mxGeometry x="40" width="140" height="30" as="geometry"><mxRectangle width="140" height="30" as="alternateBounds"/></mxGeometry></mxCell><mxCell id="4" value="" style="shape=tableRow;horizontal=0;startSize=0;swimlaneHead=0;swimlaneBody=0;top=0;left=0;bottom=0;right=0;collapsible=0;dropTarget=0;fillColor=none;points=[[0,0.5],[1,0.5]];portConstraint=eastwest;" vertex="1" parent="3"><mxGeometry y="60" width="180" height="30" as="geometry"/></mxCell><mxCell id="5" value="" style="shape=partialRectangle;html=1;whiteSpace=wrap;connectable=0;fillColor=none;top=0;left=0;bottom=0;right=0;overflow=hidden;pointerEvents=1;" vertex="1" parent="4"><mxGeometry width="40" height="30" as="geometry"><mxRectangle width="40" height="30" as="alternateBounds"/></mxGeometry></mxCell><mxCell id="6" value="email" style="shape=partialRectangle;html=1;whiteSpace=wrap;connectable=0;fillColor=none;top=0;left=0;bottom=0;right=0;align=left;spacingLeft=6;overflow=hidden;" vertex="1" parent="4"><mxGeometry x="40" width="140" height="30" as="geometry"><mxRectangle width="140" height="30" as="alternateBounds"/></mxGeometry></mxCell><mxCell id="7" value="" style="shape=tableRow;horizontal=0;startSize=0;swimlaneHead=0;swimlaneBody=0;top=0;left=0;bottom=0;right=0;collapsible=0;dropTarget=0;fillColor=none;points=[[0,0.5],[1,0.5]];portConstraint=eastwest;" vertex="1" parent="3"><mxGeometry y="90" width="180" height="30" as="geometry"/></mxCell><mxCell id="8" value="" style="shape=partialRectangle;html=1;whiteSpace=wrap;connectable=0;fillColor=none;top=0;left=0;bottom=0;right=0;overflow=hidden;" vertex="1" parent="7"><mxGeometry width="40" height="30" as="geometry"><mxRectangle width="40" height="30" as="alternateBounds"/></mxGeometry></mxCell><mxCell id="9" value="password" style="shape=partialRectangle;html=1;whiteSpace=wrap;connectable=0;fillColor=none;top=0;left=0;bottom=0;right=0;align=left;spacingLeft=6;overflow=hidden;" vertex="1" parent="7"><mxGeometry x="40" width="140" height="30" as="geometry"><mxRectangle width="140" height="30" as="alternateBounds"/></mxGeometry></mxCell><mxCell id="10" value="" style="shape=tableRow;horizontal=0;startSize=0;swimlaneHead=0;swimlaneBody=0;top=0;left=0;bottom=0;right=0;collapsible=0;dropTarget=0;fillColor=none;points=[[0,0.5],[1,0.5]];portConstraint=eastwest;" vertex="1" parent="3"><mxGeometry y="120" width="180" height="30" as="geometry"/></mxCell><mxCell id="11" value="" style="shape=partialRectangle;html=1;whiteSpace=wrap;connectable=0;fillColor=none;top=0;left=0;bottom=0;right=0;overflow=hidden;" vertex="1" parent="10"><mxGeometry width="40" height="30" as="geometry"><mxRectangle width="40" height="30" as="alternateBounds"/></mxGeometry></mxCell><mxCell id="12" value="coin" style="shape=partialRectangle;html=1;whiteSpace=wrap;connectable=0;fillColor=none;top=0;left=0;bottom=0;right=0;align=left;spacingLeft=6;overflow=hidden;" vertex="1" parent="10"><mxGeometry x="40" width="140" height="30" as="geometry"><mxRectangle width="140" height="30" as="alternateBounds"/></mxGeometry></mxCell></root></mxGraphModel></diagram></mxfile>